<svg id="Capa_1" enable-background="new 0 0 511.688 511.688" height="512" viewBox="0 0 511.688 511.688" width="512" xmlns="http://www.w3.org/2000/svg"><g><path d="m240.844 138.768h30v57.92h-30z" fill="#ecf4f9"/><path d="m255.844 138.768h15v57.92h-15z" fill="#cddff8"/><path d="m402.79 274.229h30v57.459h-30z" fill="#ecf4f9"/><path d="m417.79 274.229h15v57.459h-15z" fill="#cddff8"/><path d="m78.898 274.229h30v57.459h-30z" fill="#ecf4f9"/><path d="m93.898 274.229h14.999v57.459h-14.999z" fill="#cddff8"/><path d="m38.898 234.2c0-27.873 37.568-72.548 55-93.468 10.241 12.291 10.021 23.453 22.415 41.733 20.243 29.858 22.585 43.825 22.585 51.734 0 82.949-100 63.361-100 .001z" fill="#f6e486"/><path d="m93.898 140.732v148.497c30.327 0 54.999-24.687 54.999-55.029.001-27.873-37.567-72.548-54.999-93.468z" fill="#f0ce46"/><path d="m200.844 98.738c0-27.995 38.756-77.59 55-98.738 11.645 15.161 10.602 26.323 22.667 45.35 20.018 31.565 22.333 45.587 22.333 53.389 0 82.95-100 63.363-100-.001z" fill="#f6e486"/><path d="m255.844 0v153.768c30.327 0 55-24.686 55-55.03 0-27.995-38.756-77.59-55-98.738z" fill="#f0ce46"/><path d="m362.79 234.2c0-27.873 37.568-72.548 55-93.468 10.241 12.291 10.021 23.453 22.415 41.733 20.243 29.858 22.585 43.825 22.585 51.734 0 82.949-100 63.361-100 .001z" fill="#f6e486"/><path d="m417.79 140.732v148.497c30.327 0 55-24.687 55-55.029 0-27.873-37.568-72.548-55-93.468z" fill="#f0ce46"/><path d="m315.81 511.688h-119.932c0-2.923 0-5.846 0-8.768 0-7.229 10-14.459 10-21.688 0-6.911-10-13.822-10-20.732 0-35.861 0-71.725 0-107.586 0-8.533 10-17.066 10-25.6 0-5.566-10-11.133-10-16.7 0-42.976 0-85.95 0-128.926h119.933v8.769l-10 21.941 10 20.5-20 56.331 20 51.228-10 22.941 10 19.5-20 81.75z" fill="#ade993"/><path d="m315.81 511.688h-59.966v-330h59.966v8.769l-10 19.857 10 23v107.143l-10 20.357 10 22.084z" fill="#76d081"/><path d="m195.878 352.92 119.932-120.022v-42.441l-119.932 120.021z" fill="#f6e486"/><path d="m195.878 502.92 119.932-120.022v-42.441l-119.932 120.021z" fill="#f6e486"/><path d="m477.756 511.688h-119.932v-13.767l10-23.023-10-19.42v-138.79h119.932l-10 7.794 10 10.974-10 30.692 10 11.75-10 78.084z" fill="#8dc5e8"/><path d="m477.756 511.688h-59.966v-195h59.966v18.768l-10 31.358 10 11.084z" fill="#5e9ff6"/><path d="m357.824 497.921 119.932-120.023-10-9.584 10-32.858-119.932 120.022z" fill="#f6e486"/><path d="m153.864 511.688h-119.932v-13.767l10-24.897-10-17.545v-138.79h119.932v18.794c0 7.889-8.458 30.416-8.458 30.416s8.458 5.709 8.458 11.938c0 20.025-10 40.05-10 60.074 0 24.592 10 49.185 10 73.777z" fill="#e17d46"/><path d="m153.864 511.688h-59.966v-195h59.966v18.768c0 .969-2.671 2.85-2.895 4.192-1.599 9.586-5.562 26.25-5.562 26.25s8.458 5.667 8.458 11.938c-.001 44.617-.001 89.235-.001 133.852z" fill="#db4d6c"/><path d="m33.932 497.921c20.023-20.038 60.07-60.115 60.07-60.115s39.908-49.938 59.862-69.907c0-14.148 0-8.295 0-22.442-19.986 20.001-59.959 50.005-59.959 50.005s-39.982 40.012-59.974 60.018c.001 14.146.001 28.293.001 42.441z" fill="#f6e486"/><g fill="#f0ce46"><path d="m93.898 395.468v42.442l59.966-60.012v-42.442z"/><path d="m255.844 400.468v42.441l59.966-60.011v-42.441z"/><path d="m255.844 250.468v42.441l59.966-60.011v-42.441z"/><path d="m417.79 395.468v42.442l59.966-60.012v-42.442z"/></g></g></svg>