<svg id="Capa_1" enable-background="new 0 0 383.076 383.076" height="512" viewBox="0 0 383.076 383.076" width="512" xmlns="http://www.w3.org/2000/svg"><g><path d="m225.1 17.09h82.519v82.519h-82.519z" fill="#7f4b36" transform="matrix(.707 -.707 .707 .707 36.756 205.435)"/><path d="m324.664 58.415h-21.317-74.017-21.317l58.325 58.326z" fill="#985b3f"/><path d="m240.17 32.22h52.32v52.32h-52.32z" fill="#985b3f" transform="matrix(.707 -.707 .707 .707 36.726 205.423)"/><path d="m283.464 75.488h82.519v82.519h-82.519z" fill="#7f4b36" transform="matrix(.707 -.707 .707 .707 12.557 263.809)"/><path d="m383.032 116.741h-21.359-74.018-21.317l58.326 58.325z" fill="#985b3f"/><path d="m298.534 90.6h52.32v52.32h-52.32z" fill="#985b3f" transform="matrix(.707 -.707 .707 .707 12.539 263.791)"/><path d="m208.013 175.066-58.368-58.325 58.368-58.368 58.325 58.368z" fill="#7f4b36"/><path d="m266.338 116.741h-21.317-74.017-21.359l58.368 58.325z" fill="#985b3f"/><path d="m208.013 153.749-37.009-37.008 37.009-37.009 37.008 37.009z" fill="#985b3f"/><path d="m266.338 233.434-58.325-58.368 58.325-58.325 58.326 58.325z" fill="#7f4b36"/><path d="m324.664 175.066h-21.317-74.017-21.317l58.325 58.368z" fill="#985b3f"/><path d="m266.338 212.075-37.008-37.009 37.008-37.008 37.009 37.008z" fill="#985b3f"/><path d="m149.645 233.434-58.326-58.368 58.326-58.325 58.368 58.325z" fill="#6b320b"/><path d="m208.013 175.066h-21.359-74.018-21.317l58.326 58.368z" fill="#823c0c"/><path d="m149.645 212.075-37.009-37.009 37.009-37.008 37.009 37.008z" fill="#8c4617"/><path d="m208.013 291.76-58.368-58.326 58.368-58.368 58.325 58.368z" fill="#6b320b"/><path d="m266.338 233.434h-21.317-74.017-21.359l58.368 58.326z" fill="#823c0c"/><path d="m208.013 270.443-37.009-37.009 37.009-37.008 37.008 37.008z" fill="#8c4617"/><path d="m132.346 371.656-120.923-120.923 157.932-157.931 120.923 120.923z" fill="#fcd462"/><path d="m22.8 239.313-22.797 22.84h17.976v12.858h12.857v12.858h12.858v12.9h12.901v12.858h12.857v12.858h12.858v12.9h12.9v12.858h12.858v12.858h12.858v17.975l22.84-22.797z" fill="#f7be56"/><path d="m267.438 212.075-118.343 110.857-36.459-26.519 35.232 35.232 117.794-117.793z" fill="#f8c459"/><path d="m170.623 113.484-117.835 117.793-1.776 1.777 118.385-110.899 36.459 26.519z" fill="#fef4d8"/></g></svg>